PathFileType	4	(X/Y/Z)	c:/Users/goper/Files/vsCode/490R/osim_files/C15/C15_Fast_07.trc
DataRate	CameraRate	NumFrames	NumMarkers	Units                	OrigDataRate	OrigDataStartFrame	OrigNumFrames
250.00	250.00	7	36	mm	250.0	1582	2531
                Frame#	Time	LPSIS			LASIS			LTH1			LTH2			LTH3			LTH4			LLFE			LMFE			LSH1			LSH2			LSH3			LSH4			LLMAL			LMMAL			LCAL			LMTP5			LTOE			LMTP1			RPSIS			RASIS			RTH1			RTH2			RTH3			RTH4			RLFE			RMFE			RSH1			RSH2			RSH3			RSH4			RLMAL			RMMAL			RCAL			RMTP1			RTOE			RMTP5		
		X1	Y1	Z1	X2	Y2	Z2	X3	Y3	Z3	X4	Y4	Z4	X5	Y5	Z5	X6	Y6	Z6	X7	Y7	Z7	X8	Y8	Z8	X9	Y9	Z9	X10	Y10	Z10	X11	Y11	Z11	X12	Y12	Z12	X13	Y13	Z13	X14	Y14	Z14	X15	Y15	Z15	X16	Y16	Z16	X17	Y17	Z17	X18	Y18	Z18	X19	Y19	Z19	X20	Y20	Z20	X21	Y21	Z21	X22	Y22	Z22	X23	Y23	Z23	X24	Y24	Z24	X25	Y25	Z25	X26	Y26	Z26	X27	Y27	Z27	X28	Y28	Z28	X29	Y29	Z29	X30	Y30	Z30	X31	Y31	Z31	X32	Y32	Z32	X33	Y33	Z33	X34	Y34	Z34	X35	Y35	Z35	X36	Y36	Z36

1582	6.32400	-968.59595	1003.59253	304.96719	-1125.69800	979.70752	392.59415	-962.72534	603.78656	435.23215	-954.99109	559.98883	419.67371	-1014.54950	601.87805	434.58023	-1007.42706	557.42340	424.70761	-950.63959	484.11707	400.76068	-965.75726	465.85318	285.34866	-851.07196	400.96167	401.87872	-836.01276	359.33725	406.24542	-907.99390	374.71613	409.51273	-884.93475	336.22186	411.48941	-769.95184	105.02419	335.02420	-802.23468	127.00875	249.14265	-706.30139	86.17819	287.65991	-877.39185	38.83361	361.88629	-939.14978	57.79818	302.38992	-899.48016	33.96239	243.31320	-986.46466	998.18695	185.16742	-1148.87561	977.61072	144.26053	-1192.61865	614.64075	72.57883	-1210.59094	572.70819	81.86605	-1246.38428	635.15045	92.94958	-1258.87451	589.52814	95.19832	-1253.54919	493.54633	115.48893	-1240.20300	469.19522	231.99681	-1222.34265	369.01138	94.86729	-1242.85303	330.25797	91.93021	-1280.90906	390.89771	94.79298	-1291.80981	349.51492	89.96002	-1393.27197	100.95396	147.55728	-1408.16650	142.15654	231.65501	-1354.49780	48.99079	197.56923	-1535.41052	139.08189	232.22084	-1555.02100	170.70917	177.23444	-1526.20178	103.62781	121.43678
1583	6.32800	-973.78546	1002.81342	304.40866	-1130.73328	978.92389	392.46161	-966.62445	603.44489	435.04431	-958.81934	559.77881	419.58334	-1018.57184	601.38129	434.57553	-1011.26971	556.93292	424.77911	-954.34546	483.72073	400.80997	-969.92401	465.33090	285.48352	-854.13293	401.34036	401.84723	-838.69055	359.85730	406.30139	-910.93329	374.60413	409.58087	-887.46295	336.29861	411.56000	-770.67029	106.01719	335.24493	-802.98785	127.79702	249.29602	-706.85126	87.62673	287.87497	-877.43915	38.82039	361.93985	-939.29761	57.78841	302.48965	-899.55408	34.07374	243.37669	-992.01331	997.39606	184.59648	-1154.47205	976.74768	144.11316	-1198.61462	613.91174	73.00324	-1216.70300	572.20599	82.53445	-1252.39111	634.75323	93.31465	-1264.82397	589.12189	95.83371	-1259.38782	493.01663	116.17152	-1245.99023	468.83673	232.60222	-1227.90662	368.25623	95.94129	-1248.09119	329.56708	92.93166	-1286.50183	390.16138	95.62533	-1297.24866	348.69125	90.84103	-1398.85046	100.09277	148.79086	-1413.66333	141.52286	232.76190	-1360.24255	48.10310	198.77544	-1540.67102	138.94362	233.54271	-1560.42688	170.40378	178.31653	-1531.95044	102.89790	122.84986
1584	6.33200	-979.06543	1001.98511	303.85599	-1135.83228	978.07190	392.29126	-970.70435	603.08954	434.85089	-962.73462	559.36255	419.43698	-1022.55481	600.77350	434.59650	-1015.07544	556.45404	424.81311	-958.20117	483.31021	400.88327	-974.57672	465.29916	285.07419	-857.34131	401.73267	401.88974	-841.57397	360.32147	406.42056	-913.98212	374.48880	409.58905	-890.24176	336.41071	411.57776	-771.25677	106.96029	335.46484	-803.93231	128.62106	249.47261	-707.38306	89.08963	288.04239	-877.47589	38.79982	362.00021	-939.41772	57.75793	302.56363	-899.62354	34.16687	243.46878	-997.51636	996.61005	184.07802	-1160.11963	975.97534	143.93466	-1204.73523	613.26447	73.36405	-1222.84436	571.53662	83.06504	-1258.48413	634.33466	93.65833	-1271.01587	588.73926	96.42184	-1265.38843	492.64890	116.89186	-1252.01892	468.47833	233.22658	-1233.50488	367.63257	97.02945	-1253.92468	328.48898	94.23713	-1292.68030	389.25540	96.36907	-1302.86182	347.73163	91.79362	-1403.83350	99.06435	150.02585	-1418.83374	140.80727	234.07281	-1364.95813	47.07087	200.09596	-1545.42224	138.23946	234.74286	-1564.75879	169.71570	179.09946	-1536.86682	101.73831	124.16277
1585	6.33600	-984.45056	1001.18976	303.32812	-1140.96826	977.27734	392.14023	-974.89777	602.67999	434.66309	-966.15619	557.77423	417.66394	-1026.76440	600.21564	434.53470	-1019.29974	555.92328	424.86734	-962.11310	482.85638	400.92355	-978.72443	464.55481	285.37845	-862.09320	400.91898	403.47617	-844.62213	360.74933	406.55713	-917.26672	374.18640	409.58643	-893.02869	336.43448	411.67740	-771.96045	108.05412	335.71048	-804.85156	129.44214	249.69966	-707.99316	90.69617	288.27054	-877.54095	38.73783	362.09079	-939.53992	57.73032	302.65320	-899.67010	34.30556	243.55696	-1003.11835	995.88849	183.61588	-1165.61829	975.10602	143.81400	-1211.01184	612.98553	73.83539	-1228.99207	571.14996	83.68560	-1264.55408	634.00201	94.07776	-1277.17505	588.38892	96.86436	-1271.74060	492.45392	117.62377	-1258.08667	468.21506	233.93819	-1239.12720	367.18332	98.04836	-1259.38989	327.87875	95.35244	-1297.94592	388.38318	97.25172	-1308.35315	346.84991	92.59911	-1408.11243	97.79869	151.23047	-1423.32471	139.63249	235.32916	-1369.26453	45.95486	201.39041	-1549.90076	136.82767	235.93176	-1569.43298	168.03099	180.48022	-1541.21948	100.29285	125.50260
1586	6.34000	-989.86945	1000.39978	302.84354	-1146.25537	976.42139	391.90799	-979.23376	602.20795	434.47476	-969.58893	556.43152	415.94092	-1031.17871	599.64661	434.47238	-1023.50891	555.28009	424.87976	-966.27985	482.39285	400.97748	-982.87531	463.87646	285.54001	-865.93872	402.47574	405.45972	-847.80402	361.21783	406.74002	-920.42926	374.17392	409.75662	-896.02319	336.50949	411.74222	-772.80896	109.14143	335.94699	-805.72052	130.33876	249.94417	-708.66846	92.27181	288.48639	-877.05554	38.53289	362.25101	-939.69342	57.66985	302.74905	-899.72223	34.41833	243.61089	-1008.70898	995.21924	183.17857	-1171.24255	974.33698	143.53508	-1217.26733	612.51367	74.28063	-1235.38477	570.72321	84.34171	-1270.84668	633.80505	94.43602	-1283.46667	587.91241	97.41102	-1278.24731	492.33017	118.37833	-1264.47375	468.08398	234.66905	-1244.80859	366.73972	99.00993	-1264.86133	327.28214	96.39101	-1303.79260	387.58633	98.03467	-1313.78882	346.01056	93.42971	-1411.85815	96.38338	152.47957	-1427.23816	138.00443	236.46304	-1372.73572	44.78910	202.84149	-1553.98730	134.92606	237.25331	-1573.76099	165.87669	181.76660	-1544.67822	98.41559	126.53986
1587	6.34400	-995.28821	999.59991	302.37228	-1151.52148	975.60730	391.73041	-983.76196	601.74506	434.28513	-975.75555	555.84644	416.14114	-1035.68054	599.04779	434.39227	-1027.87390	554.68683	424.81714	-970.64264	481.89096	401.05859	-987.13245	463.26471	285.67200	-870.40314	402.29480	406.80035	-851.10376	361.65494	406.88193	-923.97131	373.98172	409.82913	-899.13287	336.57480	411.85275	-773.66034	110.29519	336.26004	-806.70844	131.33234	250.18492	-709.49969	93.88718	288.72256	-877.33264	38.59293	362.34726	-939.84979	57.60065	302.87894	-899.80347	34.56273	243.67323	-1014.38757	994.51300	182.78909	-1177.01685	973.59473	143.27582	-1223.68372	612.16345	74.79092	-1241.91882	570.42920	84.88763	-1277.11450	633.49609	94.84480	-1289.72205	587.50238	97.74167	-1284.81311	492.16794	119.20241	-1270.86511	467.99695	235.44412	-1250.58215	366.32220	99.93968	-1270.29065	326.67139	97.39453	-1308.92310	386.22565	98.92504	-1319.29187	345.09229	94.26241	-1414.81384	94.95251	153.54358	-1431.11951	136.40436	237.91904	-1375.82031	43.69300	204.26941	-1557.56567	132.10507	238.26399	-1577.00940	163.36304	182.67201	-1547.73401	96.10767	127.63627
1588	6.34800	-1000.83728	998.86304	302.00583	-1156.95959	974.71051	391.38324	-988.42999	601.18335	434.09827	-980.41681	555.19196	416.02777	-1040.28638	598.40961	434.27316	-1032.47278	554.02612	424.79510	-974.98828	481.38187	401.13931	-991.68829	462.58798	285.75388	-871.68329	401.99051	402.44116	-854.47186	362.06046	407.16476	-927.43927	373.80612	409.97491	-902.32343	336.60153	412.01141	-774.64081	111.48502	336.54950	-807.82593	132.28479	250.44145	-710.32391	95.66134	288.99304	-877.72034	38.67651	362.43497	-940.01263	57.50983	302.98544	-899.90942	34.66693	243.76718	-1020.12018	993.81512	182.46184	-1182.64209	972.83893	143.07210	-1229.97461	611.81366	75.34597	-1248.37256	570.13428	85.46134	-1283.46826	633.38281	95.26393	-1296.06787	587.09308	98.09927	-1291.55359	492.01276	120.01897	-1277.46387	468.06662	236.23003	-1256.27332	365.99072	100.78908	-1275.52039	326.23480	98.24741	-1315.49951	385.86069	99.78340	-1324.88391	344.18274	95.24074	-1417.56067	93.47965	154.82697	-1434.57532	134.54442	239.27057	-1378.02087	43.52927	205.41263	-1560.85449	128.69443	239.51929	-1580.80347	160.07468	184.12302	-1550.18188	93.45811	128.75703
